HIERARCHY
ROOT hip
{
  OFFSET 0 0 0
  CHANNELS 6 Xposition Yposition Zposition Zrotation Yrotation Xrotation
  JOINT abdomen
  {
    OFFSET 0 20.6881 -0.73152
    CHANNELS 3 Zrotation Xrotation Yrotation
    JOINT chest
    {
      OFFSET 0 11.7043 -0.48768
      CHANNELS 3 Zrotation Xrotation Yrotation
      JOINT neck
      {
        OFFSET 0 22.1894 -2.19456
        CHANNELS 3 Zrotation Xrotation Yrotation
        JOINT head
        {
          OFFSET -0.24384 7.07133 1.2192
          CHANNELS 3 Zrotation Xrotation Yrotation
          JOINT leftEye
          {
            OFFSET 4.14528 8.04674 8.04672
            CHANNELS 3 Zrotation Xrotation Yrotation
            End Site
            {
              OFFSET 1 0 0
            }
          }
          JOINT rightEye
          {
            OFFSET -3.6576 8.04674 8.04672
            CHANNELS 3 Zrotation Xrotation Yrotation
            End Site
            {
              OFFSET 1 0 0
            }
          }
        }
      }
      JOINT rCollar
      {
        OFFSET -2.68224 19.2634 -4.8768
        CHANNELS 3 Zrotation Xrotation Yrotation
        JOINT rShldr
        {
          OFFSET -8.77824 -1.95073 1.46304
          CHANNELS 3 Zrotation Xrotation Yrotation
          JOINT rForeArm
          {
            OFFSET -28.1742 -1.7115 0.48768
            CHANNELS 3 Zrotation Xrotation Yrotation
            JOINT rHand
            {
              OFFSET -22.5879 0.773209 7.07136
              CHANNELS 3 Zrotation Xrotation Yrotation
              JOINT rThumb1
              {
                OFFSET -1.2192 -0.487915 3.41376
                CHANNELS 3 Zrotation Xrotation Yrotation
                JOINT rThumb2
                {
                  OFFSET -3.37035 -0.52449 3.41376
                  CHANNELS 3 Zrotation Xrotation Yrotation
                  End Site
                  {
                    OFFSET -1.78271 -1.18214 1.43049
                  }
                }
              }
              JOINT rIndex1
              {
                OFFSET -7.75947 0.938293 5.60832
                CHANNELS 3 Zrotation Xrotation Yrotation
                JOINT rIndex2
                {
                  OFFSET -2.54057 -0.884171 1.56538
                  CHANNELS 3 Zrotation Xrotation Yrotation
                  End Site
                  {
                    OFFSET -1.62519 -0.234802 1.16502
                  }
                }
              }
              JOINT rMid1
              {
                OFFSET -8.24714 1.18213 3.41376
                CHANNELS 3 Zrotation Xrotation Yrotation
                JOINT rMid2
                {
                  OFFSET -3.10165 -0.590103 1.0647
                  CHANNELS 3 Zrotation Xrotation Yrotation
                  End Site
                  {
                    OFFSET -2.48547 -0.328903 0.83742
                  }
                }
              }
              JOINT rRing1
              {
                OFFSET -8.82822 0.546677 1.51678
                CHANNELS 3 Zrotation Xrotation Yrotation
                JOINT rRing2
                {
                  OFFSET -2.60934 -0.819778 -0.0198488
                  CHANNELS 3 Zrotation Xrotation Yrotation
                  End Site
                  {
                    OFFSET -2.33842 -0.294052 0.168128
                  }
                }
              }
              JOINT rPinky1
              {
                OFFSET -8.27202 -0.0477905 -0.4584
                CHANNELS 3 Zrotation Xrotation Yrotation
                JOINT rPinky2
                {
                  OFFSET -1.82734 -0.647385 -0.700984
                  CHANNELS 3 Zrotation Xrotation Yrotation
                  End Site
                  {
                    OFFSET -1.69225 -0.51767 -0.607171
                  }
                }
              }
            }
          }
        }
      }
      JOINT lCollar
      {
        OFFSET 2.68224 19.2634 -4.8768
        CHANNELS 3 Zrotation Xrotation Yrotation
        JOINT lShldr
        {
          OFFSET 8.77824 -1.95073 1.46304
          CHANNELS 3 Zrotation Xrotation Yrotation
          JOINT lForeArm
          {
            OFFSET 28.1742 -1.7115 0.48768
            CHANNELS 3 Zrotation Xrotation Yrotation
            JOINT lHand
            {
              OFFSET 22.5879 0.773209 7.07136
              CHANNELS 3 Zrotation Xrotation Yrotation
              JOINT lThumb1
              {
                OFFSET 1.2192 -0.487915 3.41376
                CHANNELS 3 Zrotation Xrotation Yrotation
                JOINT lThumb2
                {
                  OFFSET 3.37035 -0.52449 3.41376
                  CHANNELS 3 Zrotation Xrotation Yrotation
                  End Site
                  {
                    OFFSET 1.78271 -1.18214 1.43049
                  }
                }
              }
              JOINT lIndex1
              {
                OFFSET 7.75947 0.938293 5.60832
                CHANNELS 3 Zrotation Xrotation Yrotation
                JOINT lIndex2
                {
                  OFFSET 2.54057 -0.884171 1.56538
                  CHANNELS 3 Zrotation Xrotation Yrotation
                  End Site
                  {
                    OFFSET 1.62519 -0.234802 1.16502
                  }
                }
              }
              JOINT lMid1
              {
                OFFSET 8.24714 1.18213 3.41376
                CHANNELS 3 Zrotation Xrotation Yrotation
                JOINT lMid2
                {
                  OFFSET 3.10165 -0.590103 1.0647
                  CHANNELS 3 Zrotation Xrotation Yrotation
                  End Site
                  {
                    OFFSET 2.48547 -0.328903 0.83742
                  }
                }
              }
              JOINT lRing1
              {
                OFFSET 8.82822 0.546677 1.51678
                CHANNELS 3 Zrotation Xrotation Yrotation
                JOINT lRing2
                {
                  OFFSET 2.60934 -0.819778 -0.0198488
                  CHANNELS 3 Zrotation Xrotation Yrotation
                  End Site
                  {
                    OFFSET 2.33842 -0.294052 0.168128
                  }
                }
              }
              JOINT lPinky1
              {
                OFFSET 8.27202 -0.0477905 -0.4584
                CHANNELS 3 Zrotation Xrotation Yrotation
                JOINT lPinky2
                {
                  OFFSET 1.82734 -0.647385 -0.700984
                  CHANNELS 3 Zrotation Xrotation Yrotation
                  End Site
                  {
                    OFFSET 1.69225 -0.51767 -0.607171
                  }
                }
              }
            }
          }
        }
      }
    }
  }
  JOINT rButtock
  {
    OFFSET -8.77824 4.35084 1.2192
    CHANNELS 3 Zrotation Xrotation Yrotation
    JOINT rThigh
    {
      OFFSET 0 -1.70687 -2.19456
      CHANNELS 3 Zrotation Xrotation Yrotation
      JOINT rShin
      {
        OFFSET 0 -36.8199 0.73152
        CHANNELS 3 Zrotation Xrotation Yrotation
        JOINT rFoot
        {
          OFFSET 0.73152 -45.1104 -5.12064
          CHANNELS 3 Zrotation Xrotation Yrotation
          End Site
          {
            OFFSET -1.1221 -3.69964 12.103
          }
        }
      }
    }
  }
  JOINT lButtock
  {
    OFFSET 8.77824 4.35084 1.2192
    CHANNELS 3 Zrotation Xrotation Yrotation
    JOINT lThigh
    {
      OFFSET 0 -1.70687 -2.19456
      CHANNELS 3 Zrotation Xrotation Yrotation
      JOINT lShin
      {
        OFFSET 0 -36.8199 0.73152
        CHANNELS 3 Zrotation Xrotation Yrotation
        JOINT lFoot
        {
          OFFSET -0.73152 -45.1104 -5.12064
          CHANNELS 3 Zrotation Xrotation Yrotation
          End Site
          {
            OFFSET 1.1221 -3.69964 12.103
          }
        }
      }
    }
  }
}
MOTION
Frames:	4
Frame Time:	0.00833333
185.254 84.7658 42.4152 0.0 0.0 0.0 -0.385197 -0.00168813 -0.0109959 -0.106234 -0.00256711 -0.0184049 -7.48072e-15 -1.59028e-15 5.59082e-17 -2.2559e-14 3.18055e-15 1.49089e-16 -0.0 0.0 0.0 -0.0 0.0 0.0 -3.87772e-15 6.40615e-18 1.49089e-16 -7.59905e-14 1.86361e-16 1.19271e-15 -1.36013e-12 4.11484e-13 3.18055e-14 -1.55509e-11 -3.84325e-13 6.67917e-14 -3.66849e-11 5.36853e-14 2.22639e-13 -6.33499e-11 8.90555e-14 3.72125e-13 -3.66782e-11 5.725e-14 2.16278e-13 7.73091 5.47488 0.417314 -3.66831e-11 5.4964e-14 2.19458e-13 2.90554 0.965183 0.102902 -3.66752e-11 5.397e-14 2.15483e-13 10.2786 0.731801 0.0259123 -3.66829e-11 5.36719e-14 2.19458e-13 2.22167 -0.733487 -0.20892 -3.77574e-15 5.82377e-18 -4.96962e-17 -8.22906e-14 1.05604e-16 -9.93923e-16 -1.35944e-12 -4.00352e-13 2.22639e-14 -1.55483e-11 4.32978e-13 7.95139e-14 -3.66762e-11 6.73598e-14 2.09917e-13 -6.33435e-11 1.17681e-13 3.75305e-13 -3.66833e-11 7.11649e-14 2.16278e-13 -7.73091 5.47488 -0.417314 -3.66777e-11 6.81831e-14 2.09917e-13 -2.90554 0.965183 -0.102902 -3.6688e-11 6.7885e-14 2.15483e-13 -10.2786 0.731801 -0.0259123 -3.66776e-11 6.63941e-14 2.13097e-13 -2.22167 -0.733487 0.20892 -2.03217e-16 0.0 -3.88251e-19 0.221661 -2.58356 -0.0280812 -0.00748966 -0.872632 -0.0651408 -0.513123 3.45577 0.129349 2.03217e-16 0.0 3.88251e-19 -0.807764 -4.07085 0.0653909 0.00325567 1.82139 0.0244312 0.517699 2.24911 -0.105179
181.037 82.613 35.9326 -159.066 -86.5012 165.357 -1.00508 -0.859489 -0.511083 0.359737 -0.740419 -0.175688 -1.59658 1.50719 -0.376646 4.07579 -4.06578 0.0115447 -0.0 0.0 0.0 -0.0 0.0 0.0 -3.69292e-15 -6.53921e-14 1.81154e-14 17.8231 5.60657 6.95706 -22.5298 -20.411 14.9927 0.00369762 -1.44817 -0.203364 1.60074e-10 1.46609e-10 -4.24558e-10 2.77209e-10 2.53054e-10 -7.31951e-10 1.60081e-10 1.46612e-10 -4.2457e-10 7.73091 5.47488 0.417314 1.60075e-10 1.4661e-10 -4.24564e-10 2.90554 0.965183 0.102902 1.60083e-10 1.46608e-10 -4.24566e-10 10.2786 0.731801 0.0259123 1.60075e-10 1.46609e-10 -4.24563e-10 2.22167 -0.733487 -0.20892 -3.68643e-15 -6.53923e-14 1.78735e-14 -19.8885 8.57726 -7.18944 21.4848 -19.3317 -15.1136 -0.000154191 -0.43014 0.0604566 -3.44527e-10 -1.4984e-10 3.48184e-10 -5.94601e-10 -2.5841e-10 6.00211e-10 -3.44535e-10 -1.49838e-10 3.48198e-10 -7.73091 5.47488 -0.417314 -3.44528e-10 -1.49841e-10 3.48183e-10 -2.90554 0.965183 -0.102902 -3.44537e-10 -1.49841e-10 3.48189e-10 -10.2786 0.731801 -0.0259123 -3.44525e-10 -1.49841e-10 3.48185e-10 -2.22167 -0.733487 0.20892 -2.03217e-16 0.0 -3.88251e-19 -1.2922 -12.6245 -2.58983 0.00044197 15.8198 0.158695 -0.891963 2.95482 -4.61217 2.03217e-16 0.0 3.88251e-19 -1.31694 -6.52673 -1.15412 -0.0205771 6.2672 -0.0735431 0.533232 -0.921774 0.886074
180.294 82.6043 35.9826 -161.18 -86.4583 167.383 -1.67992 -1.76663 -1.02941 0.841997 -1.52038 -0.339703 -3.26339 3.10063 -0.774309 8.38565 -8.38114 0.0294873 -0.0 0.0 0.0 -0.0 0.0 0.0 -3.49607e-15 -1.36002e-13 3.73249e-14 35.1916 11.2975 14.4657 -32.9235 -37.1082 37.2208 -0.00386751 -2.91815 -0.410274 3.73408e-10 3.0273e-10 -8.8104e-10 6.46385e-10 5.2251e-10 -1.5189e-09 3.73417e-10 3.02733e-10 -8.81056e-10 7.73091 5.47488 0.417314 3.73409e-10 3.02731e-10 -8.81047e-10 2.90554 0.965183 0.102902 3.73417e-10 3.02728e-10 -8.81049e-10 10.2786 0.731801 0.0259123 3.73409e-10 3.02729e-10 -8.81045e-10 2.22167 -0.733487 -0.20892 -3.59208e-15 -1.36002e-13 3.70361e-14 -38.5064 17.2442 -15.2497 31.687 -35.1164 -36.7289 0.000801057 -0.846754 0.119031 -6.75731e-10 -3.11841e-10 7.23487e-10 -1.16612e-09 -5.37775e-10 1.24716e-09 -6.75741e-10 -3.1184e-10 7.23512e-10 -7.73091 5.47488 -0.417314 -6.75733e-10 -3.11842e-10 7.23487e-10 -2.90554 0.965183 -0.102902 -6.75741e-10 -3.11842e-10 7.23492e-10 -10.2786 0.731801 -0.0259123 -6.75727e-10 -3.1184e-10 7.23487e-10 -2.22167 -0.733487 0.20892 -2.03217e-16 0.0 -3.88251e-19 -3.94824 -23.1384 -5.62163 -0.158171 33.5682 0.46016 -1.37688 2.44006 -9.59888 2.03217e-16 0.0 3.88251e-19 -1.9623 -9.15855 -2.46107 -0.0286083 10.98 -0.177615 0.667233 -4.25118 1.93194
179.554 82.5914 36.0467 -164.269 -86.3615 170.37 -2.28981 -2.5743 -1.51261 1.27952 -2.21605 -0.490578 -4.73015 4.52079 -1.13307 12.2324 -12.1973 0.0353449 -0.0 0.0 0.0 -0.0 0.0 0.0 -3.32331e-15 -1.96189e-13 5.40481e-14 49.3521 15.8125 21.628 -30.5915 -41.4803 63.4799 -0.0198227 -4.3443 -0.611654 5.5359e-10 4.3972e-10 -1.27412e-09 9.58326e-10 7.58984e-10 -2.1966e-09 5.536e-10 4.39722e-10 -1.27414e-09 7.73091 5.47488 0.417314 5.53591e-10 4.39721e-10 -1.27413e-09 2.90554 0.965183 0.102902 5.53599e-10 4.39717e-10 -1.27413e-09 10.2786 0.731801 0.0259123 5.53591e-10 4.39718e-10 -1.27413e-09 2.22167 -0.733487 -0.20892 -3.50781e-15 -1.96189e-13 5.372e-14 -52.8701 24.0397 -23.4664 30.2763 -39.4639 -61.509 0.00226123 -1.29041 0.181411 -9.60227e-10 -4.49656e-10 1.04413e-09 -1.65712e-09 -7.75466e-10 1.79988e-09 -9.60238e-10 -4.49657e-10 1.04416e-09 -7.73091 5.47488 -0.417314 -9.60229e-10 -4.49659e-10 1.04413e-09 -2.90554 0.965183 -0.102902 -9.60236e-10 -4.49658e-10 1.04413e-09 -10.2786 0.731801 -0.0259123 -9.60221e-10 -4.49655e-10 1.04413e-09 -2.22167 -0.733487 0.20892 -2.03217e-16 0.0 -3.88251e-19 -7.43737 -32.4272 -8.92604 -0.537538 49.2013 0.900414 -1.89788 1.92212 -14.0844 2.03217e-16 0.0 3.88251e-19 -2.65457 -11.4199 -3.64259 -0.0212337 15.1587 -0.277815 0.895199 -7.25473 2.89124
